<svg width="188" height="188" viewBox="0 0 188 188" fill="none" xmlns="http://www.w3.org/2000/svg">
<g clip-path="url(#clip0_5481_9982)">
<path d="M187.12 93.56C187.12 145.23 145.23 187.12 93.56 187.12C41.89 187.12 0 145.23 0 93.56C0 41.89 41.89 0 93.56 0C145.23 0 187.12 41.89 187.12 93.56Z" fill="white"/>
<path d="M123.25 112.11C122.56 112.11 121.89 112.11 121.21 112.11H100.49V98.7299H123.43C129.6 98.7299 132.11 97.1399 132.11 93.2099C132.11 88.5199 128.09 87.3499 121.99 85.5699C120.69 85.1899 119.33 84.7999 117.9 84.3299C114.12 83.0799 109.32 81.2299 105.8 78.0099C102.23 74.7199 100.49 70.5299 100.49 65.1799C100.49 53.3399 109.04 46.5699 122.51 46.1399L122.93 46.1199H143.79V59.4999H123.52C120.58 59.4999 115.74 59.1599 115.74 64.0999C115.74 68.4699 119.48 69.5699 125.13 71.2399C126.48 71.6299 127.85 72.0399 129.33 72.5299C138.69 75.6199 147.37 80.1699 147.37 92.3099C147.37 104.45 138.35 112.11 123.24 112.11M93.57 7.56995C63.64 7.56995 37.28 22.8599 21.88 46.0599H58.45C84.47 46.0599 98.8 57.7699 98.8 79.0199C98.8 89.4199 95.45 97.5599 88.84 103.2C81.88 109.15 71.44 112.16 57.82 112.16H42.82V64.6099H58V98.7899H58.44C75.37 98.7899 83.62 92.3199 83.62 79.0299C83.62 72.2599 80.98 66.6899 76.22 63.3399C72.8 60.9299 68.22 59.7399 61.37 59.5099L60.96 59.4899V59.4599H14.61C10.08 69.9199 7.57001 81.4599 7.57001 93.5799C7.57001 141.07 46.06 179.57 93.56 179.57C141.06 179.57 179.54 141.07 179.54 93.5799C179.54 46.0899 141.05 7.56995 93.57 7.56995Z" fill="#AC1355"/>
<path d="M44.02 119.48H42.45V126.6H44.02V119.48Z" fill="white"/>
<path d="M50.49 126.6L47.04 122.08V126.6H45.5V119.48H46.94L50.28 123.87V119.48H51.82V126.6H50.49Z" fill="white"/>
<path d="M56.45 120.92V126.6H54.89V120.92H52.72V119.48H58.62V120.92H56.45Z" fill="white"/>
<path d="M59.52 126.6V119.48H64.89V120.88H61.08V122.32H64.43V123.71H61.08V125.21H64.94V126.6H59.52Z" fill="white"/>
<path d="M70.39 121.91C70.39 121.24 69.92 120.89 69.16 120.89H67.6V122.94H69.19C69.95 122.94 70.39 122.53 70.39 121.93V121.91ZM70.36 126.6L68.83 124.32H67.6V126.6H66.03V119.48H69.29C70.97 119.48 71.97 120.37 71.97 121.83V121.85C71.97 123 71.35 123.72 70.45 124.06L72.19 126.61H70.36V126.6Z" fill="white"/>
<path d="M78.65 126.6V121.95L76.65 125H76.61L74.63 121.98V126.6H73.09V119.48H74.78L76.65 122.49L78.52 119.48H80.21V126.6H78.65Z" fill="white"/>
<path d="M81.62 126.6V119.48H86.99V120.88H83.18V122.32H86.53V123.71H83.18V125.21H87.04V126.6H81.62Z" fill="white"/>
<path d="M93.06 123.04C93.06 121.78 92.2 120.89 90.91 120.89H89.7V125.18H90.91C92.19 125.18 93.06 124.32 93.06 123.06V123.04ZM90.91 126.6H88.13V119.48H90.91C93.15 119.48 94.7 121.02 94.7 123.02V123.04C94.7 125.04 93.15 126.6 90.91 126.6Z" fill="white"/>
<path d="M97.42 119.48H95.86V126.6H97.42V119.48Z" fill="white"/>
<path d="M101.41 118.92L102.56 117.12L103.89 117.7L102.58 118.92H101.4H101.41ZM102.04 121.31L101.09 123.62H102.98L102.04 121.31ZM104.2 126.6L103.55 125H100.54L99.89 126.6H98.29L101.34 119.43H102.78L105.83 126.6H104.19H104.2Z" fill="white"/>
<path d="M110.99 121.91C110.99 121.24 110.52 120.89 109.76 120.89H108.2V122.94H109.79C110.55 122.94 110.99 122.53 110.99 121.93V121.91ZM110.96 126.6L109.43 124.32H108.2V126.6H106.63V119.48H109.89C111.57 119.48 112.57 120.37 112.57 121.83V121.85C112.57 123 111.95 123.72 111.04 124.06L112.78 126.61H110.95L110.96 126.6Z" fill="white"/>
<path d="M115.32 119.48H113.76V126.6H115.32V119.48Z" fill="white"/>
<path d="M122.42 123.04C122.42 121.82 121.52 120.8 120.26 120.8C119 120.8 118.12 121.8 118.12 123.02V123.04C118.12 124.26 119.02 125.28 120.28 125.28C121.54 125.28 122.42 124.28 122.42 123.06V123.04ZM120.26 126.72C118.06 126.72 116.48 125.08 116.48 123.06V123.04C116.48 121.02 118.08 119.36 120.28 119.36C122.48 119.36 124.05 121 124.05 123.02V123.04C124.05 125.06 122.46 126.72 120.26 126.72Z" fill="white"/>
<path d="M127.63 126.7C126.55 126.7 125.46 126.32 124.61 125.56L125.54 124.45C126.18 124.98 126.85 125.32 127.66 125.32C128.3 125.32 128.69 125.07 128.69 124.65V124.63C128.69 124.23 128.45 124.03 127.25 123.73C125.82 123.36 124.89 122.97 124.89 121.55V121.53C124.89 120.23 125.93 119.38 127.38 119.38C128.42 119.38 129.31 119.71 130.03 120.28L129.22 121.46C128.59 121.02 127.97 120.76 127.37 120.76C126.77 120.76 126.45 121.03 126.45 121.38V121.4C126.45 121.87 126.75 122.02 127.99 122.33C129.43 122.71 130.25 123.23 130.25 124.47V124.49C130.25 125.91 129.17 126.7 127.64 126.7" fill="white"/>
<path d="M138.98 123.04C138.98 121.78 138.11 120.89 136.83 120.89H135.62V125.18H136.83C138.11 125.18 138.98 124.32 138.98 123.06V123.04ZM136.83 126.6H134.05V119.48H136.83C139.07 119.48 140.61 121.02 140.61 123.02V123.04C140.61 125.04 139.06 126.6 136.83 126.6Z" fill="white"/>
<path d="M141.71 126.6V119.48H147.08V120.88H143.27V122.32H146.62V123.71H143.27V125.21H147.13V126.6H141.71Z" fill="white"/>
<path d="M51.14 149.82C46.36 149.82 42.81 146.14 42.81 141.47V141.42C42.81 136.81 46.29 133.02 51.27 133.02C54.33 133.02 56.16 134.04 57.67 135.53L55.4 138.15C54.14 137.02 52.87 136.32 51.25 136.32C48.51 136.32 46.54 138.59 46.54 141.37V141.42C46.54 144.2 48.46 146.52 51.25 146.52C53.11 146.52 54.24 145.78 55.52 144.62L57.79 146.92C56.12 148.71 54.27 149.82 51.14 149.82Z" fill="white"/>
<path d="M70.11 138.85C70.11 137.32 69.04 136.53 67.3 136.53H63.76V141.19H67.37C69.11 141.19 70.11 140.26 70.11 138.89V138.84V138.85ZM70.04 149.54L66.56 144.35H63.76V149.54H60.19V133.31H67.61C71.44 133.31 73.73 135.33 73.73 138.67V138.72C73.73 141.34 72.32 142.99 70.25 143.75L74.22 149.55H70.05L70.04 149.54Z" fill="white"/>
<path d="M80.66 132.03L83.28 127.92L86.32 129.24L83.35 132.02H80.66V132.03ZM76.49 149.54V133.31H88.73V136.49H80.03V139.78H87.68V142.96H80.03V146.37H88.84V149.55H76.48L76.49 149.54Z" fill="white"/>
<path d="M102.78 141.42C102.78 138.54 100.81 136.53 97.88 136.53H95.12V146.32H97.88C100.8 146.32 102.78 144.35 102.78 141.47V141.42ZM97.88 149.53H91.55V133.3H97.88C102.99 133.3 106.51 136.8 106.51 141.37V141.42C106.51 145.99 102.99 149.53 97.88 149.53Z" fill="white"/>
<path d="M112.96 133.31H109.39V149.54H112.96V133.31Z" fill="white"/>
<path d="M123.9 136.6V149.54H120.33V136.6H115.39V133.31H128.84V136.6H123.9Z" fill="white"/>
<path d="M143.22 141.42C143.22 138.64 141.18 136.32 138.3 136.32C135.42 136.32 133.43 138.59 133.43 141.38V141.43C133.43 144.21 135.47 146.53 138.34 146.53C141.21 146.53 143.21 144.26 143.21 141.47V141.42H143.22ZM138.3 149.81C133.29 149.81 129.7 146.08 129.7 141.46V141.41C129.7 136.8 133.34 133.01 138.35 133.01C143.36 133.01 146.95 136.74 146.95 141.36V141.41C146.95 146.02 143.31 149.8 138.3 149.8" fill="white"/>
</g>
<defs>
<clipPath id="clip0_5481_9982">
<rect width="187.12" height="187.12" fill="white"/>
</clipPath>
</defs>
</svg>
